<svg id="Capa_1" data-name="Capa 1" xmlns="http://www.w3.org/2000/svg" viewBox="0 0 200 58"><defs><style>.cls-1,.cls-3{fill:#008237;}.cls-2{fill:#ffdd54;}.cls-3{fill-rule:evenodd;}</style></defs><path class="cls-1" d="M123.49,48.51c-1-.16-2.15-1.28-3.56-3.37-.83-1.37-1.67-2.74-2.5-4.13,2.6-.48,3.84-1.94,3.82-4.23a3.39,3.39,0,0,0-1.87-3.16,7.3,7.3,0,0,0-3.69-.84c-.6,0-1.47,0-2.63.08a44.38,44.38,0,0,1-5.54-.08h-.18v.52s2.66.43,2.66,1.31c0,.15,0,.95,0,2.08v9.16a5.94,5.94,0,0,1-.16,1.66c-.18.61-2.14,1-2.14,1l-.11.62.2,0c1.31-.11,2.58-.16,3.82-.16s2.45,0,3.63.16l.17,0v-.56a15.46,15.46,0,0,1-2.43-1c-.27-.19-.31-.65-.31-1.32,0-.13,0-.55,0-1.06s0-1,0-1.34V41.4h1.67a81.14,81.14,0,0,1,5,7.67l0,.09s1.39-.08,2.05-.08,1.37,0,1.94.07l.17,0v-.63ZM114.34,40h-1.6V34.27l2.28,0c2.34,0,3.39.93,3.41,2.86a2.43,2.43,0,0,1-1.22,2.36A6.44,6.44,0,0,1,114.34,40Z"/><path class="cls-1" d="M22,41.55a6.46,6.46,0,0,0-2.42-.91,6.2,6.2,0,0,0,1.88-.83A3.51,3.51,0,0,0,23.07,37a3.69,3.69,0,0,0-1.76-3.33,6.49,6.49,0,0,0-3.72-.92l-3.94.08H12.36c-1.57,0-2.83-.1-2.83-.1v.56s2.44.32,2.65,1.49c0,.16.1,12-.09,12.41-.48,1-2.56,1.34-2.56,1.34v.6S11.07,49,12.77,49H14l4.32.1a6.42,6.42,0,0,0,3.75-1,3.84,3.84,0,0,0,1.75-3.38A3.52,3.52,0,0,0,22,41.55Zm-7.3-4.81c0-.79,0-1.54.06-2.56.52,0,1.19,0,2,0,2.44,0,3.52.81,3.54,2.86s-1.17,2.75-3.82,2.77H14.72Zm1.91,11h0v0Zm-.13-.11h0l-1.68-.06c0-.52,0-.94,0-1.4V41.5H16.3c3.19,0,4.65,1.1,4.67,3.3S19.55,47.64,16.48,47.67Z"/><path class="cls-1" d="M36.49,32.49a7.85,7.85,0,0,0-6,2.42,8.8,8.8,0,0,0-2.22,6.21A8.41,8.41,0,0,0,30.38,47a7.35,7.35,0,0,0,5.71,2.43h0a7.34,7.34,0,0,0,6-2.71,9.59,9.59,0,0,0,2.06-6.32h0a8.05,8.05,0,0,0-2.05-5.68A7.37,7.37,0,0,0,36.49,32.49Zm4.57,9.09A8.23,8.23,0,0,1,40,46a4,4,0,0,1-3.68,2,4.2,4.2,0,0,1-4-2.75,12.43,12.43,0,0,1-1-5.29,6.8,6.8,0,0,1,1.2-4.15,4.32,4.32,0,0,1,3.71-1.86c3.23,0,4.83,2.46,4.85,7.64Z"/><path class="cls-1" d="M57.38,47.38H52.74V37c0-1.27,0-1.9,0-2.21.08-1,2.83-1.49,2.83-1.49v-.53s-2.84.18-4.15.18-4-.18-4-.18v.52s2.66.45,2.66,1.45c0,.16,0,.92,0,2v8.79A3.65,3.65,0,0,1,50,47.26c-.5,1-2.54,1.26-2.54,1.26v.64h.17c1.7-.1,3.61-.15,5.71-.15s4.36,0,6.76.15h.16l.21-4.35h-.68S59.44,47.47,57.38,47.38Z"/><path class="cls-1" d="M71.41,28.43h0a1.26,1.26,0,0,0-1.25-1.22,1.8,1.8,0,0,0-1.19.61l-3.41,4h1.27l3.89-2.22a1.39,1.39,0,0,0,.69-1.1Z"/><path class="cls-1" d="M67.46,33c-.93,0-2.19-.06-3.77-.2h-.17v.53s2.2.5,2.49,1.64a17.76,17.76,0,0,1,.11,2.55s.07,3.78,0,5.81c0,2.75-.13,4-.82,4.53a4.37,4.37,0,0,1-1.83.67v.67l.17,0c1.48-.13,2.74-.2,3.77-.2s2.13.07,3.68.2l.17,0V48.5a5.64,5.64,0,0,1-1.86-.69c-.48-.35-.8-1.76-.78-4.51,0-.38,0-5.61,0-5.8,0-1,0-2,.08-2.57.15-1.3,2.51-1.63,2.51-1.63v-.53h-.17C69.51,32.92,68.28,33,67.46,33Z"/><path class="cls-1" d="M89.82,33.33l.12,0v-.54l-.18,0a17.57,17.57,0,0,1-2.36.15,25.62,25.62,0,0,1-2.68-.15h-.17v.52l.1,0c.67.21,1.61.5,1.57.82-.29,1.48-3,8.29-3.64,10-.52-1.22-4-9.65-3.94-9.86,0,0-.19-.46,1.84-.91l.12,0v-.53s-2.28.16-3.38.16a22.35,22.35,0,0,1-3.52-.16v.52a3.46,3.46,0,0,1,2.07,1.46c1.68,3.82,3.63,8.73,5.69,14.59l0,.11h.8l0-.11c1.53-4.21,4.79-12.63,5.76-14.64A2.49,2.49,0,0,1,89.82,33.33Z"/><path class="cls-1" d="M98,32.36l0-.1H96.8l0,.1c-2.54,6-3.39,7.88-5.54,12.92-.33.76-.49,1.3-.83,1.94-.44.83-2,1.3-2,1.3v.65l.17,0A25.8,25.8,0,0,1,91.34,49a27.49,27.49,0,0,1,2.85.15l.17,0v-.65l-2.08-.78c.71-1.81,1.15-3,1.57-4l2.73,0,3,.05A36.7,36.7,0,0,1,101,47.77a15.44,15.44,0,0,1-2.27.71l-.12,0v.66l.17,0c1.1-.1,2.28-.15,3.5-.15s2.51,0,3.81.15h.17v-.64a5.66,5.66,0,0,1-1.9-.87,8.25,8.25,0,0,1-.89-1.9C100.07,37.59,98.83,34.5,98,32.36ZM94.29,42.64l2.47-6.23,2.34,6.21Z"/><rect class="cls-2" x="140.04" y="4.32" width="44.39" height="44.75"/><path class="cls-3" d="M162.79,5.88c6.12-2.22,10.13.92,10.13.92a16.64,16.64,0,0,0-6.71.16Z"/><path class="cls-3" d="M165.76,8.74c5.81-.84,7.12,1.07,7.12,1.07a9.66,9.66,0,0,0-4,.14Z"/><path class="cls-3" d="M161.18,31c3-2.55,6.39-1.9,7.52-.39,1.62,2.16.54,4.52-1.39,6.25,0,0,2.4-2.63.53-5.15-.8-1.06-3.29-1.61-5.48.22s-3.47,5.79.54,7.35C158.19,39.44,157.4,34.24,161.18,31Z"/><path class="cls-3" d="M176.52,21.15c20-8.47,21.11,13.63-13.92,35.44C187.9,35.31,193.66,18.56,176.52,21.15Z"/><path class="cls-3" d="M146.84,33.21c-20.46,9-6.8,15.86-6.8,15.86S133.08,41.25,146.84,33.21Z"/><path class="cls-3" d="M165,49.06c10.73-6.42,3.58-12.78,3.58-12.78s4.85,6.58-7.11,12.79Z"/><path class="cls-3" d="M146.59,35.44a29.35,29.35,0,0,0,3.22-9.89S151.93,32.11,146.59,35.44Z"/><path class="cls-3" d="M143,35.77S131.93,25.49,149.34,17c5-2.45,11.82-2.73,14.84,1.46.91,1.27,1.57,8.43-8.53,16.52-3.86-1.23-4.55-3.52-4.55-3.52a6.31,6.31,0,0,0,4.44,2c6.63-5.14,8.16-13.14,6.94-14.34-2.74-2.68-7.5-2.36-12.32-.2C135.34,25.5,143,35.77,143,35.77Z"/><path class="cls-3" d="M150.26,49.07h-3.65s4.56-7.73,12.85-9A17.49,17.49,0,0,0,150.26,49.07Z"/><path class="cls-3" d="M151.93,9.08s.22-4.31,6.94-6.81a12.63,12.63,0,0,1,12.64,2S160.37-.51,154.84,8.13a12.62,12.62,0,0,0,2.28,1.26s1.45,9.76,7.78,13.34a10.4,10.4,0,0,0,4.72-3.67s-.23,3.45-4.6,5.31c-8.14-4.11-10-13.93-10-13.93S152.1,9.79,151.93,9.08Z"/><path class="cls-3" d="M155,21.53c-14.22,3.74-8.63,9.72-8.63,9.72S145,26.49,155,21.53Z"/><path class="cls-3" d="M172.22,11.91a5.84,5.84,0,0,0-.51,5.05c1,2.65,4.26,4.43,4.26,4.43S172.67,16.75,172.22,11.91Z"/><path class="cls-1" d="M25,23.61l-2.88,0c0-.82,0-1.23,0-1.46V20.68h1.21c.18,0,.38,0,.61,0h.64c.29,0,.66.24.83,1.1l0,.06h.21v-.08c0-.52,0-1,0-1.5s0-1,0-1.41v-.08h-.21l0,.05c-.14.76-.49,1-.77,1-.06,0-.48,0-.7,0H22.12V18.56c0-.22,0-.6.06-1.27l1.67,0,.54,0h.51c.29,0,.78.1.91,1.1v.06H26v-.09c0-.16,0-.33,0-.5,0-.43,0-.87,0-1.33v-.08H26c-1.09.05-2.19.08-3.28.08s-2.16,0-3.17-.08h-.09v.26s1.31.2,1.33.66c0,.07,0,.51,0,1.08,0,0,.07,2.44,0,4a6.29,6.29,0,0,1-.08,1.32c-.27.47-1.27.55-1.27.55v.29h.09c1.25-.07,2.54-.11,3.58-.11s2,0,2.94.11h.08v-.08c0-.65,0-1.35.06-2.06v-.09H26S25.79,23.61,25,23.61Zm9.56-2.88c-.57,0-1.28,0-1.87-.05h-.08v.23s1.29.17,1.29.8v1.9a3,3,0,0,1-1.08.21A2.66,2.66,0,0,1,30.64,23a4.1,4.1,0,0,1-.8-2.47,3.55,3.55,0,0,1,.74-2.42,2.92,2.92,0,0,1,2.39-1c.71,0,1,.1,1.19.3a4.36,4.36,0,0,1,.53,1.18h.24v-.08c0-.36,0-.71,0-1s0-.67,0-1v-.07h-.07a8.27,8.27,0,0,0-1.76-.18,5.25,5.25,0,0,0-3.4,1.18,4.1,4.1,0,0,0-1.51,3.2,3.71,3.71,0,0,0,1.38,3,4.89,4.89,0,0,0,3.21,1,8.16,8.16,0,0,0,2.41-.35l.07,0v-.06c0-.31,0-1.23,0-2.56,0-.71,1-.82,1-.82v-.23h-.08C35.59,20.7,35.16,20.73,34.6,20.73ZM17,21a9.7,9.7,0,0,0-2.38-1.4,1.47,1.47,0,0,1-1-1.27,1.3,1.3,0,0,1,1-1.23,2.14,2.14,0,0,1,1.58.12c.41.32.43,1.26.43,1.26h.22L17,16.69a4.63,4.63,0,0,0-1.91-.43,3.17,3.17,0,0,0-1.9.57,1.92,1.92,0,0,0-.78,2.31c.28.93,2,1.78,2.48,2.05,1.41.71,1.05,1.75,1.05,1.75a1.41,1.41,0,0,1-1.07.88c-.33.1-1.64.09-1.84-.22a7,7,0,0,1-.28-1.48l-.32.07-.23,2.15a5.18,5.18,0,0,0,1.92.37,4.18,4.18,0,0,0,2.21-.51,2.07,2.07,0,0,0,1.12-1.88A2,2,0,0,0,17,21Zm45.25-4.78a3.91,3.91,0,0,0-3,1.21,4.4,4.4,0,0,0-1.11,3.1,4.25,4.25,0,0,0,1.07,2.95,3.71,3.71,0,0,0,2.86,1.21h0a3.67,3.67,0,0,0,3-1.35,4.82,4.82,0,0,0,1-3.16,4,4,0,0,0-1-2.83A3.66,3.66,0,0,0,62.28,16.26Zm2.29,4.54A4.22,4.22,0,0,1,64.05,23a2,2,0,0,1-1.84,1,2.12,2.12,0,0,1-2-1.37A6.28,6.28,0,0,1,59.69,20a3.42,3.42,0,0,1,.6-2.08A2.18,2.18,0,0,1,62.15,17c1.61,0,2.41,1.22,2.42,3.81ZM45,16.49c-.54,0-1.09,0-1.61-.08h-.09v.28s1,.15,1.16.59a11.07,11.07,0,0,1,.16,2c0,.28,0,3.18-.48,3.81a1.86,1.86,0,0,1-1.5.68,2,2,0,0,1-1.73-.65c-.82-1-.41-5.29-.41-5.61,0-.6,1.3-.83,1.3-.83v-.28h-.08c-.65.05-1.32.08-2,.08s-1.3,0-1.89-.08h-.08v.29s1.37.28,1.37,1c0,.24-.22,2.55-.2,3.5a4.46,4.46,0,0,0,.58,2.47,3.52,3.52,0,0,0,2.88,1.1,2.88,2.88,0,0,0,2.73-1.35,6.15,6.15,0,0,0,.48-2.76,1.28,1.28,0,0,0,0-.19c0-.94,0-1.67,0-2.17s0-.8,0-.86c0-.59,1-.72,1-.72V16.4h-.08A15.54,15.54,0,0,1,45,16.49ZM52.07,20h-.8V17.17H52.4c1.17,0,1.69.46,1.7,1.42a1.18,1.18,0,0,1-.61,1.17A3,3,0,0,1,52.07,20Zm2.78,2.58-1.24-2.06a2,2,0,0,0,1.9-2.11,1.69,1.69,0,0,0-.93-1.57,3.63,3.63,0,0,0-1.84-.42c-.3,0-.74,0-1.31,0l-1.45,0a13,13,0,0,1-1.31-.06h-.09v.32s1.21.09,1.32.65a8,8,0,0,1,0,1v4.52a3.7,3.7,0,0,1-.09.9c-.09.36-1.06.52-1.06.52l-.06.28h.1c.65-.06,1.29-.08,1.91-.08a17.87,17.87,0,0,1,1.81.08h.08v-.26a4.64,4.64,0,0,1-1.18-.49.72.72,0,0,1-.19-.6c0-.06,0-.34,0-.59s0-.48,0-.67V20.73h.83a37.49,37.49,0,0,1,2.48,3.82l0,0h.05c.3,0,.64,0,1,0s.71,0,1,0h.09v-.32h-.07Q55.91,24.15,54.85,22.59Zm17.92-1.51-.07,0,.07,0-.08-.1h0a2.79,2.79,0,0,0-.74-.58l-1.51-.75c-.65-.35-1-.77-1-1.27a1.24,1.24,0,0,1,.42-.95.63.63,0,0,1,.13-.11l0,0a1,1,0,0,1,.36-.15,2.36,2.36,0,0,1,.58-.07,4.15,4.15,0,0,1,.49,0,1.9,1.9,0,0,1,.49.11l.46,1.31h.21l.08-1.83,0,0a4.56,4.56,0,0,0-1.85-.4,3.15,3.15,0,0,0-1.9.57,2.05,2.05,0,0,0-.9,1.75,2.08,2.08,0,0,0,.12.66,2.65,2.65,0,0,0,1.07,1.16l.1.06h0l0,0c.48.27.87.54,1.39.82s1,.79,1,1.23a2.14,2.14,0,0,1,0,.45h0a1.32,1.32,0,0,1-1.12.85,3.27,3.27,0,0,1-.59.05,2.2,2.2,0,0,1-1.2-.29l-.25-1.47-.27.06h0l-.22,2.15.06,0a5.15,5.15,0,0,0,1.85.35,4.38,4.38,0,0,0,2.21-.51,2.09,2.09,0,0,0,1.1-1.9A2,2,0,0,0,72.77,21.08Z"/></svg>